<svg viewBox="0 0 188 188" fill="none" xmlns="http://www.w3.org/2000/svg">
  <path d="m103.601 182.522 19.571-11.785 22.606-.4-19.586 11.785-22.606.4h.015Zm-78.4337-35.518 19.5565 11.77 11.6215 20.195-19.5568-11.771-11.6212-20.194ZM84.2068 5.4188 64.6207 17.204l-22.6062.3997L61.6006 5.8186l22.6062-.3998ZM162.64 40.9372l-19.556-11.7556-11.636-20.1947 19.556 11.7704 11.621 20.1799h.015Zm9.727 64.9668 10.955-20.5652v23.5702l-10.955 20.595V105.904Zm-19.172 59.562h-.755l-25.982.474 12.984-24.355 5.862-.104 20.86-.37-2.724 5.108-10.26 19.247h.015Zm-89.0774 17.752-13.5462-23.526-.2071-.355 16.4474-.282 10.2889-.177 13.7533 23.881-23.5387.414-3.1976.06v-.015ZM4.8262 111.722l12.9834-24.3548 13.7826 23.8808-12.9834 24.37L4.841 111.707l-.0148.015Zm10.6294-53.2699v23.5555L4.4857 102.602V79.0465l10.9699-20.5944Zm19.1715-35.9626 4.4117-.074 22.325-.3849-12.9834 24.3402-26.7219.4738 12.9686-24.3551ZM123.705 4.7378l13.753 23.8812-13.783.2369-12.953.2221L96.9683 5.1967 123.69 4.723l.015.0148Zm59.276 71.4956-12.968 24.3406-.356-.6222-13.397-23.2446 12.968-24.355 13.753 23.8812ZM21.7771 139.482l13.3239-24.991 19.0237 11.444 4.7225 2.843-13.3239 24.992-23.7462-14.288Zm73.8734 42.359-14.1086-24.518 23.7611-14.287 14.123 24.518-23.7607 14.287h-.0148Zm-45.3603-27.242 12.9834-24.355 11.0144-.193 15.7075-.281-12.9834 24.355h-.9032l-25.8187.474Zm-1.8357-70.1189 13.7533 23.8809-26.7071.474-13.7829-23.8811 26.7219-.4738h.0148Zm30.6449-36.2586-12.9835 24.355-13.7532-23.8813 12.9834-24.355 13.7533 23.8813Zm45.4636 9.5199h-.902l-25.8195.4738 12.9685-24.355 26.737-.4738-12.984 24.355Zm14.819 45.7786-6.484-11.2671-7.269-12.6142 26.707-.4738 13.768 23.8811-26.722.474Zm-24.456 24.651 5.818-10.926.962-1.821 13.753 23.881-12.983 24.355-13.753-23.881 6.188-11.608h.015Zm-72.4377-14.702 5.6257-.103 17.4692-.311 20.0299 12.051-23.1093.4-20.0155-12.052v.015Zm88.3377-47.3921 14.374 8.4687-22.99.3998-.148-.0889-19.853-11.948 23.095-.3998 5.536 3.583-.014-.0148Zm4.989 64.6111-7.61-13.207-4.293-7.461V85.9606l11.903 20.6684v24.074-.015Zm-71.8901-28.589L52.0222 81.4301V57.3268l11.9027 20.6685v24.1037ZM92.231 58.9258 72.2007 70.9775l11.2362-21.0682 20.0301-12.0369-11.236 21.0682v-.0148Zm3.3602 70.1782.1927-.119.2812-.177 19.5559-11.771-2.131 4.013-2.413 4.53-6.559 12.303-20.1334 12.245 11.2066-21.039v.015ZM68.4848 78.7059l25.4337-15.294 24.7085 14.8647c.103.0888.207.1628.311.2369l.399.2221v30.5734l-25.4333 15.309L68.47 109.324V78.7059h.0148Zm73.8442-44.4904 23.746 14.2873-13.324 25.0064-19.586-11.5334-4.19-2.7095 10.645-19.9725 2.709-5.0783Zm-59.7801 10.734L68.4403 20.4316l23.761-14.3021 14.1227 24.5179-23.7603 14.2872-.0148.0149Zm85.2731 91.4085-19.527.341-7.921.133v-28.589l19.542-.341 7.891-.133v28.589h.015ZM39.9865 51.2862l7.4762-.1332v28.5893l-18.6832.3258-8.7492.148V51.6267l19.9562-.3553v.0148ZM187.941 109.753v-.178c0-.133 0-.281-.015-.429V76.3815s-.015-.0296-.015-.0444V76.0706c0-.0445-.015-.0889-.03-.1333 0-.1184-.029-.2221-.059-.3405 0-.0296-.015-.0592-.015-.1036-.029-.1037-.059-.1925-.118-.2813-.015-.0444-.015-.0889-.044-.1333l-.489-.8439-15.085-26.1909-1.377-2.3837-16.107-27.9527a1.8728 1.8728 0 0 0-.652-.6663L125.881.2369s-.059 0-.089-.0148C125.541.089 125.274 0 124.978 0h-.859L93.4447.5478l-32.5844.5774c-.3108 0-.6215.0889-.9028.2517L32.0216 18.1811c-.2665.1629-.5478.5182-.7106.7995v.0149l-.0297.0592-.3701.6662s0 .0296-.0148.0444L15.9146 47.8809v.0593s-.0148.0148-.0148.0296c-.0148.0296-.0444.0592-.0593.0888 0 0 0 .0444-.0148.0592-.0148.0296-.0444.0592-.0444.0888l-.0148.0149-.0445.074s-.0445.0592-.0593.1036L.2367 77.3586C.074 77.6399 0 77.9657 0 78.2914v33.6236c0 .325.148.725.3108 1.021v.045l.0297.044.3997.711 16.181 28.086s.0445.044.0593.059l16.3589 28.397c.1628.281.3848.503.6513.666l28.0541 16.804s.0741 0 .1037.03c.2517.133.5182.222.7995.222h.8584l31.1335-.563H95.1326l31.9914-.562c.297 0 .593-.089.844-.252l27.966-16.819c.088-.059.133-.163.222-.237.059-.044.103-.118.163-.177.103-.119.252-.208.311-.356l.414-.814 14.997-28.131.104-.207c.014-.015.029-.044.044-.074v-.044s.044-.045.044-.059l15.604-29.286v-.044c.089-.193.148-.415.163-.637l-.059.015Z" fill="#D9DAFF" opacity=".3"/>
</svg>
