<svg viewBox="0 0 188 188" fill="none" xmlns="http://www.w3.org/2000/svg">
  <path d="M109.51 151.533c-1.388.373-2.806-.521-3.09-1.923l-6.5833-34.17 11.3753 32.887c.477 1.357-.314 2.834-1.717 3.206h.015Zm26.631-15.377c-1.015 1.015-2.687.955-3.627-.134l-22.795-26.294 26.288 22.789c1.089.94 1.149 2.61.119 3.639h.015Zm15.376-26.622c-.374 1.387-1.851 2.177-3.21 1.7l-32.886-11.3799 34.17 6.5919c1.418.284 2.299 1.686 1.926 3.088Zm-1.926-27.6671-34.17 6.5774 32.886-11.3799c1.359-.4773 2.851.3132 3.21 1.7003.373 1.387-.508 2.8039-1.926 3.0872v.015ZM136.022 55.796l-26.303 22.7897 22.795-26.2946c.94-1.0888 2.612-1.1486 3.627-.1344 1.015 1.0142.955 2.6847-.119 3.6393Zm-24.795-15.7946L99.8517 72.8882l6.5833-34.1697a2.4876 2.4876 0 0 1 3.09-1.9238c1.388.3728 2.179 1.8494 1.717 3.2067h-.015Zm-34.1551 0c-.4627-1.3573.3135-2.8488 1.7167-3.2067 1.3883-.3729 2.8064.5069 3.0901 1.9238l6.5831 34.1697-11.3899-32.8868Zm-24.78 15.7946c-1.0897-.9396-1.1494-2.6102-.1344-3.6393 1.0151-1.0142 2.687-.9544 3.6424.1344l22.7947 26.2946L52.3068 55.796h-.0149ZM38.7226 81.8669c-1.4182-.2834-2.2989-1.6853-1.9257-3.0873.3732-1.3871 1.851-2.1776 3.2095-1.7003l32.8858 11.3799-34.1696-6.5774v-.0149Zm1.2838 29.3671c-1.3585.477-2.8363-.313-3.2095-1.7-.3732-1.387.5225-2.804 1.9257-3.088l34.1696-6.5919-32.8858 11.3799Zm15.7935 24.788c-.9554 1.089-2.6123 1.149-3.6424.134-1.015-1.014-.9553-2.684.1344-3.639l26.2877-22.789-22.7946 26.294h.0149Zm26.0788 13.573c-.2687 1.417-1.6869 2.296-3.0901 1.923-1.3882-.372-2.1794-1.849-1.7017-3.206l11.3749-32.887-6.5831 34.17Zm59.1283 25.817c-2.507 1.447-5.717.462-6.971-2.133l-30.512-62.791 39.126 57.824c1.627 2.402.865 5.668-1.643 7.115v-.015Zm34.409-34.408c-1.448 2.505-4.717 3.251-7.121 1.625l-57.815-39.121 62.801 30.516c2.613 1.267 3.583 4.474 2.15 6.98h-.015Zm7.24-42.03-69.638-4.9665 69.638-4.9666c2.881-.2088 5.344 2.0731 5.344 4.9666 0 2.8934-2.463 5.1753-5.344 4.9665Zm-9.39-44.9976-62.801 30.5005 57.815-39.1212c2.404-1.6257 5.673-.8651 7.121 1.6406 1.448 2.5056.463 5.7124-2.135 6.9801Zm-30.631-34.2741-39.126 57.8243 30.512-62.8058c1.269-2.6101 4.479-3.5794 6.972-2.1327 2.507 1.4467 3.269 4.7129 1.642 7.1142ZM94 74.9763 89.0291 5.3396C88.8201 2.461 91.104 0 94 0c2.896 0 5.1799 2.461 4.971 5.3396L94 74.9763Zm-48.6346-55.274c-1.6271-2.4013-.8658-5.6675 1.6421-7.1142 2.5078-1.4467 5.7173-.4624 6.9712 2.1327L84.491 77.5266 45.3654 19.7023ZM14.7337 53.9764c-2.5975-1.2677-3.5827-4.4745-2.1347-6.9801 1.448-2.5057 4.7172-3.2663 7.1205-1.6406l57.8152 39.1212-62.801-30.5005ZM5.3441 98.974C2.4631 99.1828 0 96.886 0 94.0075c0-2.8786 2.463-5.1754 5.3441-4.9815l69.638 4.9815-69.638 4.9665Zm14.3754 43.655c-2.4033 1.626-5.6725.88-7.1205-1.625-1.448-2.506-.4628-5.713 2.1347-6.98l62.801-30.516-57.8152 39.121Zm34.2742 30.635c-1.2689 2.61-4.4784 3.58-6.9713 2.133-2.5079-1.447-3.2692-4.713-1.6421-7.114l39.1257-57.825-30.5123 62.791v.015ZM94.0149 188c-2.896 0-5.1799-2.446-4.9709-5.34l4.9709-69.636 4.971 69.636c.209 2.879-2.075 5.34-4.971 5.34Z" fill="#9AEAF8" opacity=".3"/>
</svg>
